<svg width="154" height="155" viewBox="0 0 154 155" fill="none" xmlns="http://www.w3.org/2000/svg">
<path d="M54.5416 80.7083L99.4583 80.7083" stroke="white" stroke-width="5" stroke-linecap="round"/>
<path d="M54.5416 99.9583L80.2083 99.9583" stroke="white" stroke-width="5" stroke-linecap="round"/>
<path d="M35.2916 25.3583C35.2916 24.5183 35.2916 24.0982 35.4551 23.7774C35.5989 23.4951 35.8284 23.2656 36.1106 23.1218C36.4315 22.9583 36.8515 22.9583 37.6916 22.9583H85.6308C85.9977 22.9583 86.1812 22.9583 86.3538 22.9998C86.5069 23.0365 86.6532 23.0971 86.7874 23.1794C86.9388 23.2721 87.0685 23.4019 87.3279 23.6613L118.005 54.3387C118.265 54.5982 118.394 54.7279 118.487 54.8793C118.57 55.0135 118.63 55.1598 118.667 55.3128C118.708 55.4855 118.708 55.6689 118.708 56.0358V129.642C118.708 130.482 118.708 130.902 118.545 131.223C118.401 131.505 118.172 131.734 117.889 131.878C117.568 132.042 117.148 132.042 116.308 132.042H37.6916C36.8515 132.042 36.4315 132.042 36.1106 131.878C35.8284 131.734 35.5989 131.505 35.4551 131.223C35.2916 130.902 35.2916 130.482 35.2916 129.642V25.3583Z" stroke="white" stroke-width="5"/>
<path d="M80.2084 22.9583V59.0583C80.2084 59.8984 80.2084 60.3185 80.3719 60.6393C80.5157 60.9216 80.7451 61.151 81.0274 61.2949C81.3483 61.4583 81.7683 61.4583 82.6084 61.4583H118.708" stroke="white" stroke-width="5"/>
</svg>
