<svg width="154" height="155" viewBox="0 0 154 155" fill="none" xmlns="http://www.w3.org/2000/svg">
<path d="M117.765 90.3334H132.75C133.693 90.3334 134.164 90.3334 134.457 90.0405C134.75 89.7476 134.75 89.2762 134.75 88.3334V49.4167C134.75 47.5311 134.75 46.5883 134.164 46.0025C133.578 45.4167 132.636 45.4167 130.75 45.4167H23.25C21.3644 45.4167 20.4216 45.4167 19.8358 46.0025C19.25 46.5883 19.25 47.5311 19.25 49.4167V89.3334C19.25 89.8048 19.25 90.0405 19.3964 90.1869C19.5429 90.3334 19.7786 90.3334 20.25 90.3334H36.2353" stroke="white" stroke-width="5"/>
<path d="M38.5 134.556L38.5 66.6667C38.5 65.7239 38.5 65.2524 38.7929 64.9596C39.0858 64.6667 39.5572 64.6667 40.5 64.6667L113.5 64.6667C114.443 64.6667 114.914 64.6667 115.207 64.9596C115.5 65.2524 115.5 65.7239 115.5 66.6667L115.5 134.556C115.5 134.873 115.5 135.031 115.396 135.106C115.292 135.181 115.142 135.131 114.842 135.031L96.4081 128.886C96.3297 128.86 96.2906 128.847 96.25 128.847C96.2094 128.847 96.1702 128.86 96.0919 128.886L77.1581 135.197C77.0798 135.223 77.0406 135.236 77 135.236C76.9594 135.236 76.9202 135.223 76.8419 135.197L76.8419 135.197L57.9081 128.886C57.8297 128.86 57.7906 128.847 57.75 128.847C57.7094 128.847 57.6702 128.86 57.5919 128.886L39.1581 135.031C38.8578 135.131 38.7076 135.181 38.6038 135.106C38.5 135.031 38.5 134.873 38.5 134.556Z" stroke="white" stroke-width="5"/>
<path d="M115.5 45.4167V22.63C115.5 21.6219 115.5 21.1179 115.304 20.7328C115.131 20.3941 114.856 20.1188 114.517 19.9462C114.132 19.75 113.628 19.75 112.62 19.75H41.38C40.3719 19.75 39.8679 19.75 39.4828 19.9462C39.1441 20.1188 38.8688 20.3941 38.6962 20.7328C38.5 21.1179 38.5 21.6219 38.5 22.63V45.4167" stroke="white" stroke-width="5"/>
<path d="M64.1666 90.3333L83.4166 90.3333" stroke="white" stroke-width="5" stroke-linecap="round"/>
<path d="M64.1666 109.583L93.0416 109.583" stroke="white" stroke-width="5" stroke-linecap="round"/>
</svg>
